<svg id="visual" viewBox="0 0 900 600" width="900" height="600" xmlns="http://www.w3.org/2000/svg" xmlns:xlink="http://www.w3.org/1999/xlink" version="1.1"><rect x="0" y="0" width="900" height="600" fill="#41321e"></rect><defs><linearGradient id="grad1_0" x1="33.3%" y1="0%" x2="100%" y2="100%"><stop offset="20%" stop-color="#241608" stop-opacity="1"></stop><stop offset="80%" stop-color="#241608" stop-opacity="1"></stop></linearGradient></defs><defs><linearGradient id="grad1_1" x1="33.3%" y1="0%" x2="100%" y2="100%"><stop offset="20%" stop-color="#241608" stop-opacity="1"></stop><stop offset="80%" stop-color="#2d1f11" stop-opacity="1"></stop></linearGradient></defs><defs><linearGradient id="grad1_2" x1="33.3%" y1="0%" x2="100%" y2="100%"><stop offset="20%" stop-color="#372818" stop-opacity="1"></stop><stop offset="80%" stop-color="#2d1f11" stop-opacity="1"></stop></linearGradient></defs><defs><linearGradient id="grad1_3" x1="33.3%" y1="0%" x2="100%" y2="100%"><stop offset="20%" stop-color="#372818" stop-opacity="1"></stop><stop offset="80%" stop-color="#41321e" stop-opacity="1"></stop></linearGradient></defs><defs><linearGradient id="grad2_0" x1="0%" y1="0%" x2="66.7%" y2="100%"><stop offset="20%" stop-color="#241608" stop-opacity="1"></stop><stop offset="80%" stop-color="#241608" stop-opacity="1"></stop></linearGradient></defs><defs><linearGradient id="grad2_1" x1="0%" y1="0%" x2="66.7%" y2="100%"><stop offset="20%" stop-color="#2d1f11" stop-opacity="1"></stop><stop offset="80%" stop-color="#241608" stop-opacity="1"></stop></linearGradient></defs><defs><linearGradient id="grad2_2" x1="0%" y1="0%" x2="66.7%" y2="100%"><stop offset="20%" stop-color="#2d1f11" stop-opacity="1"></stop><stop offset="80%" stop-color="#372818" stop-opacity="1"></stop></linearGradient></defs><defs><linearGradient id="grad2_3" x1="0%" y1="0%" x2="66.7%" y2="100%"><stop offset="20%" stop-color="#41321e" stop-opacity="1"></stop><stop offset="80%" stop-color="#372818" stop-opacity="1"></stop></linearGradient></defs><g transform="translate(900, 0)"><path d="M0 540.8C-24.2 525.6 -48.4 510.4 -82.1 518.5C-115.8 526.6 -159 558 -167.1 514.4C-175.2 470.7 -148.2 352.1 -171.6 336.8C-195 321.5 -268.9 409.7 -312.1 429.6C-355.3 449.5 -367.9 401.2 -341.5 341.5C-315.1 281.9 -249.8 210.9 -268.6 195.1C-287.4 179.4 -390.5 218.9 -415.2 211.6C-439.9 204.2 -386.4 150.1 -364.3 118.4C-342.1 86.6 -351.5 77.2 -386.2 61.2C-420.9 45.2 -480.8 22.6 -540.8 0L0 0Z" fill="#3c2d1b"></path><path d="M0 405.6C-18.2 394.2 -36.3 382.8 -61.6 388.9C-86.9 395 -119.3 418.5 -125.3 385.8C-131.4 353 -111.1 264 -128.7 252.6C-146.3 241.2 -201.7 307.3 -234.1 322.2C-266.5 337.1 -275.9 300.9 -256.1 256.1C-236.4 211.4 -187.3 158.2 -201.4 146.4C-215.6 134.5 -292.9 164.2 -311.4 158.7C-330 153.2 -289.8 112.6 -273.2 88.8C-256.6 64.9 -263.6 57.9 -289.6 45.9C-315.6 33.9 -360.6 16.9 -405.6 0L0 0Z" fill="#322415"></path><path d="M0 270.4C-12.1 262.8 -24.2 255.2 -41.1 259.3C-57.9 263.3 -79.5 279 -83.6 257.2C-87.6 235.4 -74.1 176 -85.8 168.4C-97.5 160.8 -134.4 204.8 -156.1 214.8C-177.7 224.7 -184 200.6 -170.8 170.8C-157.6 140.9 -124.9 105.4 -134.3 97.6C-143.7 89.7 -195.2 109.4 -207.6 105.8C-220 102.1 -193.2 75.1 -182.1 59.2C-171.1 43.3 -175.8 38.6 -193.1 30.6C-210.4 22.6 -240.4 11.3 -270.4 0L0 0Z" fill="#291a0d"></path><path d="M0 135.2C-6.1 131.4 -12.1 127.6 -20.5 129.6C-29 131.7 -39.8 139.5 -41.8 128.6C-43.8 117.7 -37 88 -42.9 84.2C-48.8 80.4 -67.2 102.4 -78 107.4C-88.8 112.4 -92 100.3 -85.4 85.4C-78.8 70.5 -62.4 52.7 -67.1 48.8C-71.9 44.8 -97.6 54.7 -103.8 52.9C-110 51.1 -96.6 37.5 -91.1 29.6C-85.5 21.6 -87.9 19.3 -96.5 15.3C-105.2 11.3 -120.2 5.6 -135.2 0L0 0Z" fill="#241608"></path></g><g transform="translate(0, 600)"><path d="M0 -540.8C13.1 -437 26.3 -333.2 51.5 -324.9C76.6 -316.7 113.8 -404 137.5 -423.2C161.2 -442.4 171.3 -393.5 187 -367.1C202.7 -340.7 224 -337 230.4 -317.1C236.9 -297.3 228.5 -261.3 263 -263C297.6 -264.7 375 -304.1 424.7 -308.6C474.4 -313.1 496.4 -282.8 481.9 -245.5C467.4 -208.3 416.4 -164.2 425.1 -138.1C433.8 -112.1 502.2 -104.2 531.4 -84.2C560.6 -64.2 550.7 -32.1 540.8 0L0 0Z" fill="#3c2d1b"></path><path d="M0 -405.6C9.9 -327.8 19.7 -249.9 38.6 -243.7C57.5 -237.5 85.4 -303 103.1 -317.4C120.9 -331.8 128.5 -295.1 140.3 -275.3C152.1 -255.6 168 -252.7 172.8 -237.9C177.6 -223 171.4 -196 197.3 -197.3C223.2 -198.6 281.3 -228.1 318.6 -231.4C355.8 -234.8 372.3 -212.1 361.4 -184.1C350.5 -156.2 312.3 -123.1 318.8 -103.6C325.4 -84.1 376.6 -78.1 398.5 -63.1C420.5 -48.1 413 -24.1 405.6 0L0 0Z" fill="#322415"></path><path d="M0 -270.4C6.6 -218.5 13.1 -166.6 25.7 -162.5C38.3 -158.4 56.9 -202 68.8 -211.6C80.6 -221.2 85.7 -196.7 93.5 -183.5C101.4 -170.4 112 -168.5 115.2 -158.6C118.4 -148.6 114.2 -130.7 131.5 -131.5C148.8 -132.4 187.5 -152 212.4 -154.3C237.2 -156.5 248.2 -141.4 240.9 -122.8C233.7 -104.2 208.2 -82.1 212.6 -69.1C216.9 -56 251.1 -52.1 265.7 -42.1C280.3 -32.1 275.4 -16 270.4 0L0 0Z" fill="#291a0d"></path><path d="M0 -135.2C3.3 -109.3 6.6 -83.3 12.9 -81.2C19.2 -79.2 28.5 -101 34.4 -105.8C40.3 -110.6 42.8 -98.4 46.8 -91.8C50.7 -85.2 56 -84.2 57.6 -79.3C59.2 -74.3 57.1 -65.3 65.8 -65.8C74.4 -66.2 93.8 -76 106.2 -77.1C118.6 -78.3 124.1 -70.7 120.5 -61.4C116.8 -52.1 104.1 -41 106.3 -34.5C108.5 -28 125.5 -26 132.8 -21C140.2 -16 137.7 -8 135.2 0L0 0Z" fill="#241608"></path></g></svg>